<svg width="598" height="598" viewBox="0 0 598 598" fill="none" xmlns="http://www.w3.org/2000/svg">
<g clip-path="url(#clip0_824_1858)">
<path d="M0 462.636H519.427V326.249C504.495 338.322 485.577 345.536 464.921 345.536C439.036 345.536 415.02 333.963 398.843 314.796C390.009 317.536 380.796 318.905 371.588 318.905C346.572 318.905 323.301 309.197 305.755 291.525C277.38 263.4 270.536 220.593 288.083 185.124L12.4427 185.129C5.47386 185.129 0 190.728 0 197.572V462.636ZM202.48 290.156C202.48 280.823 207.584 272.359 215.917 268.129C224.381 263.9 234.209 264.77 241.803 270.244L305.641 317.411C312.11 322.265 315.719 329.483 315.719 337.447C315.719 345.285 312.11 352.504 305.766 357.233C305.766 357.358 305.766 357.358 305.641 357.358L241.928 404.525C237.449 407.634 232.345 409.379 227.121 409.379C223.262 409.379 219.533 408.384 215.924 406.639C207.585 402.41 202.486 393.947 202.486 384.613L202.48 290.156Z" fill="#F04242"/>
<path d="M0 584.716C0 591.56 5.47399 597.159 12.4427 597.159H506.989C513.958 597.159 519.432 591.56 519.432 584.716V487.523H0.0053304L0 584.716ZM97.8173 517.393H157.177V514.409C157.177 507.44 162.776 501.966 169.62 501.966C176.589 501.966 182.063 507.44 182.063 514.409V517.393H421.743C428.586 517.393 434.185 522.992 434.185 529.836C434.185 536.805 428.586 542.279 421.743 542.279H182.063V545.388C182.063 552.232 176.589 557.831 169.62 557.831C162.776 557.831 157.177 552.232 157.177 545.388V542.279H97.8173C90.8485 542.279 85.3747 536.805 85.3747 529.836C85.3695 522.992 90.8487 517.393 97.8173 517.393Z" fill="#2196F3"/>
<path d="M589 119.409C579.667 98.8787 562.989 76.1027 542.208 55.196C521.301 34.2894 498.525 17.7374 477.869 8.40403C448.374 -5.15864 432.448 0.0654931 423.984 7.53424C423.984 7.53424 423.984 7.65924 423.859 7.65924C423.484 8.03424 422.989 8.40403 422.614 8.77903C420.25 11.1436 418.01 14.378 416.39 18.2374L313.098 190.971C297.046 217.725 301.275 251.949 323.426 273.976C336.494 287.169 353.916 294.012 371.588 294.012C383.535 294.012 395.604 290.778 406.432 284.304L408.296 283.184C417.879 305.335 439.656 320.643 464.916 320.643C499.015 320.643 526.765 293.017 526.765 258.919C526.765 244.731 521.786 231.293 513.077 220.465L578.785 181.143C582.89 179.523 586.129 177.283 588.619 174.794C588.994 174.419 589.364 173.924 589.739 173.424L589.864 173.299C597.212 164.961 602.436 149.034 588.999 119.414L589 119.409ZM464.927 295.743C448.624 295.743 434.687 285.29 429.833 270.357L491.432 233.399C498.026 240.242 501.885 249.201 501.885 258.909C501.885 279.191 485.333 295.743 464.926 295.743H464.927ZM571.453 156.489L568.344 158.354C564.235 159.224 556.026 158.229 543.578 152.505C525.657 144.416 505.376 129.609 486.584 110.817C467.792 92.025 452.985 71.7383 444.772 53.8223C439.173 41.2546 438.178 33.041 439.048 28.9316L440.793 26.0671C441.787 25.4473 443.282 24.9473 445.772 24.9473C450.376 24.9473 457.72 26.4421 467.548 31.0462C485.595 39.1348 505.751 54.0676 524.543 72.7342C543.335 91.6516 558.267 111.813 566.355 129.729C573.193 144.792 573.193 153.505 571.453 156.489Z" fill="#2196F3"/>
</g>
<defs>
<clipPath id="clip0_824_1858">
<rect width="598" height="598" fill="white"/>
</clipPath>
</defs>
</svg>
