<?xml version="1.0" encoding="utf-8"?>
<!-- Generator: Adobe Illustrator 26.0.1, SVG Export Plug-In . SVG Version: 6.00 Build 0)  -->
<svg version="1.1" id="Layer_1" xmlns="http://www.w3.org/2000/svg" xmlns:xlink="http://www.w3.org/1999/xlink" x="0px" y="0px"
	 viewBox="0 0 512 512" style="enable-background:new 0 0 512 512;" xml:space="preserve">
<style type="text/css">
	.st0{fill:#1F4665;}
</style>
<g>
	<g>
		<path class="st0" d="M371,443.7h-13.2c-75.4,0-234.6,0-310.1,0c-14.8,0-26.8,12-26.8,26.8c0,14.8,12,26.8,26.8,26.8H371
			c14.8,0,26.8-12,26.8-26.8C397.8,455.7,385.8,443.7,371,443.7L371,443.7z"/>
		<path class="st0" d="M356.5,398.1c0-11.1-9-20.2-20.2-20.2h-254c-11.1,0-20.2,9-20.2,20.2v30.6h294.3L356.5,398.1L356.5,398.1z"/>
		<path class="st0" d="M480.9,336.1l-99.8-99.8c-9.6-9.6-23.4-12.6-35.6-8.8l-23.8-23.9c14.1-16.1,25.3-33.1,33.3-49.9l-96.4-96.4
			c-21.1,10-42.5,25.1-61.9,44.5c-19.4,19.4-34.5,40.9-44.5,62l96.3,96.3c16.8-8,33.9-19.2,50-33.3l23.9,23.9
			c-1.1,3.5-1.6,7-1.6,10.6c0,9,3.4,18.1,10.3,24.9l99.8,99.8c13.8,13.8,36.1,13.8,50,0C494.7,372.5,494.7,349.7,480.9,336.1
			L480.9,336.1z"/>
		<path class="st0" d="M366.2,143.7c7.2,7.2,18.9,7.2,26.1,0c7.2-7.2,7.2-18.9,0-26.1L294.7,20c-7.2-7.2-18.9-7.2-26.1,0
			c-7.2,7.2-7.2,18.9,0,26.1L366.2,143.7z"/>
		<path class="st0" d="M212.4,297.5c7.2,7.2,18.9,7.2,26.1,0c7.2-7.2,7.2-18.9,0-26.1l-97.6-97.6c-7.2-7.2-18.9-7.2-26.1,0h0
			c-7.2,7.2-7.2,18.9,0,26.1L212.4,297.5z"/>
	</g>
</g>
</svg>
