<svg width="687" height="561" viewBox="0 0 687 561" fill="none" xmlns="http://www.w3.org/2000/svg">
<path fill-rule="evenodd" clip-rule="evenodd" d="M108.292 454.893H11V368.502C20.9114 362.971 30.584 357.335 40.6253 351.981C84.8333 328.423 123.068 308.027 125.906 222.611C185.042 219.903 238.584 196.142 278.973 158.757C308.869 131.085 331.566 95.9593 343.994 56.402C356.421 95.9593 379.12 131.085 409.016 158.757C449.88 196.59 504.213 220.475 564.189 222.699C571.58 250.981 584.132 277.205 600.809 300.345C620.637 327.845 646.424 351.391 676.064 367.929V454.898H578.777C578.777 439.153 572.501 424.153 561.37 413.029C550.251 401.909 535.245 395.627 519.496 395.627H504.334C488.589 395.627 473.589 401.903 462.46 413.029C459.986 415.492 457.762 418.164 455.788 420.977C453.814 418.159 451.58 415.503 449.116 413.029C437.996 401.909 422.991 395.627 407.241 395.627H392.08C376.331 395.627 361.335 401.903 350.205 413.029C347.731 415.492 345.507 418.154 343.533 420.977C341.559 418.159 339.325 415.503 336.862 413.029C325.742 401.909 310.736 395.627 294.987 395.627H279.826C264.08 395.627 249.08 401.903 237.951 413.029C235.477 415.492 233.253 418.164 231.279 420.977C229.305 418.159 227.071 415.503 224.607 413.029C213.487 401.909 198.482 395.627 182.732 395.627H167.571C151.822 395.627 136.826 401.903 125.696 413.029C114.577 424.143 108.3 439.143 108.3 454.893H108.292ZM319.572 333.653L372.233 303.251L424.889 272.85L372.233 242.449L319.572 212.037V333.653Z" fill="#F44336"/>
<path fill-rule="evenodd" clip-rule="evenodd" d="M406.972 417.069C417.363 417.069 426.811 421.329 433.675 428.188C440.534 435.048 444.794 444.5 444.794 454.891V517.37H353.988V454.891C353.988 444.5 358.248 435.052 365.102 428.188C371.962 421.329 381.414 417.074 391.805 417.074H406.972V417.069ZM504.071 417.069C493.68 417.069 484.232 421.324 477.368 428.183C470.509 435.043 466.253 444.495 466.253 454.886V517.365H557.06V454.886C557.06 444.495 552.8 435.047 545.94 428.183C539.081 421.324 529.623 417.063 519.238 417.063L504.071 417.058V417.069ZM279.551 417.069C269.16 417.069 259.712 421.324 252.848 428.183C245.989 435.043 241.728 444.495 241.728 454.886V517.365H332.535V454.886C332.535 444.495 328.275 435.047 321.415 428.183C314.556 421.324 305.103 417.069 294.713 417.069H279.551ZM675.791 538.818H10.724C4.79693 538.818 0 543.615 0 549.542C0 555.469 4.80733 560.266 10.724 560.266H675.791C681.718 560.266 686.515 555.469 686.515 549.542C686.515 543.62 681.707 538.818 675.791 538.818ZM167.297 417.069C156.907 417.069 147.459 421.329 140.595 428.183C133.735 435.043 129.475 444.495 129.475 454.886V517.365H220.282V454.886C220.282 444.495 216.021 435.047 209.162 428.183C202.303 421.324 192.845 417.069 182.459 417.069H167.297Z" fill="#2196F3"/>
<path fill-rule="evenodd" clip-rule="evenodd" d="M104.365 211.189H104.402C104.402 205.288 109.183 200.501 115.089 200.501C172.792 200.324 225.229 178.163 264.209 142.085C303.215 105.981 328.725 55.9132 332.512 0.00520833L55.4185 0C30.8038 0 10.7358 20.0733 10.7358 44.6827V342.816C17.1369 339.144 23.788 335.597 30.3038 332.129C70.1372 310.905 104.372 292.659 104.372 211.197L104.365 211.189ZM423.245 142.079C462.199 178.137 514.595 200.287 572.259 200.495C577.207 200.443 581.686 203.855 582.795 208.881C589.144 237.397 601.259 263.798 617.878 286.854C633.518 308.551 653.175 327.292 675.784 342.032V44.6848C675.784 20.0701 655.711 0.0021464 631.102 0.0021464H354.942C358.728 55.9141 384.239 105.971 423.244 142.069L423.245 142.079Z" fill="#2196F3"/>
</svg>
