<svg width="199" height="33" viewBox="0 0 199 33" fill="none" xmlns="http://www.w3.org/2000/svg">
<g clip-path="url(#clip0_204_581)">
<path d="M7.06638 0V19.512L14.4154 12.3662H24.061L14.0709 21.5348L24.6705 32.258H14.7687L7.06638 24.1317V32.258H0V0H7.06638Z" fill="#9190D2"/>
<path d="M32.5761 12.3672L37.3547 22.8608L42.3365 12.3672H46.753L51.726 23.1699L56.752 12.3672H64.5603L54.1462 32.2591H49.4648L44.4741 21.3415L39.7485 32.2591H34.9522L24.7324 12.3672H32.5761Z" fill="#9190D2"/>
<path d="M74.0203 12.3639V32.2558H66.9539V12.3639H74.0203ZM66.5211 4.66155C66.5176 4.13916 66.6228 3.62175 66.8302 3.14228C67.0408 2.66319 67.3405 2.22853 67.7135 1.8615C68.0709 1.49306 68.4931 1.19363 68.959 0.978203C69.4452 0.785901 69.9642 0.689904 70.4871 0.695548C71.0095 0.69202 71.5269 0.797306 72.0064 1.0047C72.9737 1.40627 73.7424 2.17495 74.1439 3.14228C74.3513 3.62175 74.4566 4.13916 74.4531 4.66155C74.4492 5.1832 74.3442 5.69913 74.1439 6.18083C73.9285 6.64671 73.6291 7.06891 73.2606 7.42628C72.8936 7.79928 72.459 8.09905 71.9799 8.30957C71.5004 8.51697 70.983 8.62226 70.4606 8.61873C69.9247 8.6234 69.3932 8.52131 68.8972 8.31841C67.9684 7.88482 67.2324 7.12364 66.8302 6.18083C66.63 5.69913 66.525 5.1832 66.5211 4.66155Z" fill="#9190D2"/>
<path d="M85.8656 0V19.512L93.2499 12.3662H102.887L92.8966 21.5348L103.496 32.258H93.6298L85.8921 24.1317V32.258H78.8257V0H85.8656Z" fill="#9190D2"/>
<g opacity="0.65">
<path d="M115.615 18.1898V32.2607H108.549V18.1898H106.217V12.3689H108.549V6.33594H115.615V12.3689H119.616V18.234L115.615 18.1898Z" fill="#9190D2" fill-opacity="0.6"/>
<path d="M122.257 12.3642H129.324V15.6235C130.004 14.5034 130.951 13.5688 132.08 12.903C133.237 12.2388 134.553 11.9028 135.887 11.9314H136.47C136.731 11.9338 136.991 11.9604 137.247 12.0109V18.7328C136.305 18.2678 135.268 18.0289 134.217 18.035C133.532 17.9725 132.842 18.0656 132.198 18.3073C131.554 18.5489 130.973 18.9329 130.499 19.4306C129.615 20.6599 129.19 22.1601 129.297 23.6704V32.2207H122.231L122.257 12.3642Z" fill="#9190D2" fill-opacity="0.6"/>
<path d="M147.396 12.3672V23.5497C147.396 26.0112 148.574 27.2419 150.929 27.2419C153.285 27.2419 154.501 26.0112 154.577 23.5497V12.3672H161.643V24.91C161.643 27.6011 160.76 29.6239 158.994 30.9783C157.227 32.3209 154.577 33.001 151.044 33.001C147.511 33.001 144.861 32.3209 143.094 30.9783C141.328 29.6357 140.444 27.6041 140.444 24.91V12.3672H147.396Z" fill="#9190D2" fill-opacity="0.6"/>
<path d="M179.575 17.4529C178.411 16.8081 177.107 16.4593 175.776 16.4371C175.221 16.416 174.67 16.5506 174.187 16.8257C174.006 16.935 173.858 17.0894 173.755 17.2738C173.653 17.4582 173.601 17.666 173.604 17.8768C173.599 18.0742 173.626 18.271 173.683 18.4598C173.792 18.6211 173.937 18.7543 174.107 18.8485C174.414 19.0079 174.741 19.1266 175.079 19.2018L176.792 19.5904C178.423 19.8213 179.941 20.5528 181.138 21.6839C181.621 22.1897 181.997 22.7873 182.244 23.4413C182.492 24.0952 182.605 24.7922 182.578 25.4909C182.601 26.5546 182.374 27.6089 181.913 28.5681C181.453 29.5273 180.773 30.3645 179.928 31.0115C179.027 31.6715 178.012 32.1596 176.934 32.4513C175.688 32.8265 174.392 33.0111 173.091 32.9989C170.283 32.9621 167.537 32.1687 165.142 30.7023L167.703 25.7294C169.323 26.9532 171.275 27.6583 173.303 27.7521C173.865 27.7728 174.42 27.6218 174.893 27.3193C175.082 27.2074 175.238 27.0484 175.346 26.8579C175.455 26.6674 175.512 26.452 175.512 26.2328C175.522 26.0206 175.483 25.8087 175.397 25.6145C175.366 25.5146 175.316 25.4217 175.249 25.3413C175.183 25.261 175.101 25.1947 175.008 25.1464C174.727 24.9588 174.412 24.8269 174.081 24.7577C173.572 24.5936 173.052 24.4637 172.526 24.3691C170.846 24.1524 169.258 23.4804 167.933 22.4258C167.492 21.9375 167.152 21.367 166.932 20.7471C166.713 20.1272 166.617 19.47 166.652 18.8131C166.636 17.7808 166.85 16.7577 167.279 15.8188C167.676 14.9231 168.282 14.1356 169.046 13.5222C169.883 12.875 170.832 12.3869 171.846 12.0824C173.045 11.7345 174.289 11.5649 175.538 11.5789C177.742 11.5801 179.924 12.0153 181.96 12.8597L179.575 17.4529Z" fill="#9190D2" fill-opacity="0.6"/>
<path d="M194.52 18.1898V32.2607H187.454V18.1898H185.122V12.3689H187.454V6.33594H194.52V12.3689H198.522V18.234L194.52 18.1898Z" fill="#9190D2" fill-opacity="0.6"/>
</g>
</g>
<defs>
<clipPath id="clip0_204_581">
<rect width="198.521" height="33" fill="white"/>
</clipPath>
</defs>
</svg>
